<svg xmlns="http://www.w3.org/2000/svg" viewBox="0 0 1440 320"><path fill="#5354b1 " fill-opacity="0.85" d="M0,256L24,240C48,224,96,192,144,186.7C192,181,240,203,288,218.7C336,235,384,245,432,240C480,235,528,213,576,218.7C624,224,672,256,720,229.3C768,203,816,117,864,117.3C912,117,960,203,1008,224C1056,245,1104,203,1152,160C1200,117,1248,75,1296,69.3C1344,64,1392,96,1416,112L1440,128L1440,0L1416,0C1392,0,1344,0,1296,0C1248,0,1200,0,1152,0C1104,0,1056,0,1008,0C960,0,912,0,864,0C816,0,768,0,720,0C672,0,624,0,576,0C528,0,480,0,432,0C384,0,336,0,288,0C240,0,192,0,144,0C96,0,48,0,24,0L0,0Z"></path></svg>