<svg viewBox="0 0 200 200" xmlns="http://www.w3.org/2000/svg">
  <path fill="#eb2f46" d="M43.8,-74.5C55.9,-68.9,64.2,-55.4,72.9,-41.7C81.6,-27.9,90.6,-14,92.8,1.3C95.1,16.5,90.5,33.1,81.9,46.9C73.3,60.8,60.6,72,46.3,77.4C32,82.9,16,82.7,2.4,78.6C-11.3,74.5,-22.6,66.6,-32.3,58.4C-42,50.3,-50.2,42,-56.1,32.2C-61.9,22.5,-65.5,11.2,-69.4,-2.2C-73.3,-15.7,-77.5,-31.5,-73.7,-44.7C-69.8,-58,-57.9,-68.8,-44.3,-73.6C-30.7,-78.3,-15.3,-77,0.3,-77.5C15.9,-77.9,31.7,-80.2,43.8,-74.5Z" transform="translate(100 100)" />
</svg>